<?xml version="1.0" encoding="utf-8"?>
<!-- Generator: Adobe Illustrator 16.0.0, SVG Export Plug-In . SVG Version: 6.00 Build 0)  -->
<!DOCTYPE svg PUBLIC "-//W3C//DTD SVG 1.1//EN" "http://www.w3.org/Graphics/SVG/1.1/DTD/svg11.dtd">
<svg version="1.1" id="Logo" xmlns="http://www.w3.org/2000/svg" xmlns:xlink="http://www.w3.org/1999/xlink" x="0px" y="0px"
	 width="2500px" height="1500px" viewBox="0 0 2500 1500" enable-background="new 0 0 2500 1500" xml:space="preserve">
<g>
	<g>
		<g>
			<path fill="#FFFFFF" d="M769.999,809.418V693.216h51.276c22.75,0,37.276,16.625,37.276,37.626c0,21.176-14.525,36.4-37.276,36.4
				h-26.95v42.176H769.999z M817.425,747.467c14,0,19.775-7.175,19.775-17.325c0-9.625-5.775-16.8-19.775-16.8h-23.1v34.125H817.425
				z"/>
			<path fill="#FFFFFF" d="M938.349,809.418v-52.15h-45.326v52.15h-24.326V693.216h24.326v43.751h45.326v-43.751h24.5v116.202
				H938.349z"/>
			<path fill="#FFFFFF" d="M976.67,809.418V693.216h51.276c22.75,0,37.276,16.625,37.276,37.626c0,21.176-14.525,36.4-37.276,36.4
				h-26.95v42.176H976.67z M1024.096,747.467c14,0,19.775-7.175,19.775-17.325c0-9.625-5.775-16.8-19.775-16.8h-23.1v34.125
				H1024.096z"/>
		</g>
	</g>
	<path fill="#FFFFFF" d="M1069.071,764.442v-17.675h43.401v17.675H1069.071z"/>
	<g>
		<path fill="#FFFFFF" d="M1147.219,760.417v49.001h-24.326V693.216h82.777v20.3h-58.451v26.426h51.101v20.475H1147.219z"/>
		<path fill="#FFFFFF" d="M1282.245,809.418v-29.925c0-11.2-4.2-15.576-18.2-15.576h-25.9v45.501h-23.625V693.216h58.976
			c21.525,0,35.701,14.351,35.701,33.601c0,12.425-6.126,22.925-17.326,26.951c10.325,3.325,14.176,9.1,14.176,22.75v32.9H1282.245z
			 M1238.144,713.341v30.976h30.45c12.95,0,17.851-6.475,17.851-15.4c0-9.1-4.9-15.575-16.976-15.575H1238.144z"/>
		<path fill="#FFFFFF" d="M1320.919,809.418V693.216h24.325v116.202H1320.919z"/>
		<path fill="#FFFFFF" d="M1357.243,809.418V693.216h85.401v20.3h-61.776v24.851h56.876v20.476h-56.876v29.925h64.576v20.65
			H1357.243z"/>
		<path fill="#FFFFFF" d="M1525.24,809.418l-49.701-78.051v78.051h-22.575V693.216h25.726l46.2,74.727v-74.727h22.751v116.202
			H1525.24z"/>
		<path fill="#FFFFFF" d="M1563.266,809.418V693.216h44.976c31.5,0,53.9,21.525,53.9,56.876s-20.125,59.326-50.226,59.326H1563.266z
			 M1607.016,789.643c21.176,0,30.276-13.3,30.276-39.551c0-26.25-9.101-36.75-32.376-36.75h-18.025v76.301H1607.016z"/>
		<path fill="#FFFFFF" d="M1738.54,727.517c-1.225-11.9-8.4-17.675-23.275-17.675c-13.476,0-20.65,4.725-20.65,14.175
			c0,6.65,5.425,11.2,18.025,14.175c14.875,3.5,25.375,6.3,34.476,10.15c10.5,4.375,18.2,11.551,18.2,30.101
			c0,22.226-19.95,35.001-43.926,35.001c-33.601,0-50.751-13.301-51.626-38.851h23.45c0.176,11.725,10.851,19.25,25.025,19.25
			c15.226,0,23.451-6.125,23.451-15.575c0-7.7-3.15-12.425-18.025-15.575c-35.525-7.525-51.276-13.826-51.276-38.851
			c0-19.25,14.176-34.476,42.876-34.476c28.001,0,45.501,15.226,46.376,38.151H1738.54z"/>
	</g>
	<g>
		<g>
			<path fill="#FFFFFF" d="M950.259,858.411v-23.584h3.122v9.681h12.264v-9.681h3.122v23.584h-3.122v-11.118h-12.264v11.118H950.259
				z"/>
			<path fill="#FFFFFF" d="M991.09,846.934c0-3.923,1.052-6.988,3.156-9.197c2.104-2.209,4.818-3.313,8.142-3.313
				c2.171,0,4.129,0.521,5.874,1.562c1.744,1.041,3.077,2.489,3.998,4.346c0.921,1.857,1.381,3.969,1.381,6.334
				c0,2.381-0.483,4.515-1.449,6.401s-2.333,3.317-4.099,4.29c-1.767,0.974-3.676,1.46-5.728,1.46c-2.216,0-4.2-0.535-5.952-1.605
				s-3.077-2.534-3.976-4.392C991.539,850.962,991.09,849,991.09,846.934z M994.302,846.979c0,2.846,0.764,5.084,2.291,6.716
				c1.527,1.633,3.444,2.448,5.75,2.448c2.351,0,4.286-0.823,5.806-2.471c1.52-1.646,2.28-3.99,2.28-7.03
				c0-1.916-0.326-3.59-0.977-5.02s-1.603-2.542-2.853-3.336c-1.25-0.793-2.654-1.19-4.211-1.19c-2.201,0-4.099,0.761-5.694,2.28
				S994.302,843.43,994.302,846.979z"/>
			<path fill="#FFFFFF" d="M1034.683,850.842l2.942-0.27c0.135,1.184,0.457,2.153,0.966,2.909c0.509,0.756,1.299,1.366,2.37,1.83
				c1.07,0.465,2.28,0.696,3.627,0.696c1.183,0,2.231-0.176,3.145-0.527c0.913-0.352,1.595-0.835,2.044-1.449
				c0.449-0.613,0.674-1.287,0.674-2.021c0-0.733-0.217-1.377-0.651-1.932c-0.435-0.554-1.146-1.018-2.134-1.393
				c-0.629-0.254-2.025-0.64-4.189-1.156c-2.164-0.517-3.68-1.007-4.548-1.472c-1.123-0.584-1.962-1.313-2.516-2.189
				c-0.554-0.876-0.831-1.854-0.831-2.932c0-1.197,0.337-2.313,1.011-3.347s1.658-1.819,2.954-2.358
				c1.295-0.539,2.736-0.809,4.324-0.809c1.752,0,3.294,0.285,4.627,0.854c1.333,0.569,2.358,1.4,3.077,2.493
				c0.719,1.094,1.108,2.329,1.168,3.706l-2.987,0.225c-0.165-1.482-0.711-2.605-1.64-3.369c-0.929-0.764-2.299-1.146-4.11-1.146
				c-1.887,0-3.261,0.345-4.122,1.033c-0.861,0.689-1.292,1.521-1.292,2.493c0,0.854,0.307,1.55,0.921,2.089
				c0.599,0.555,2.164,1.12,4.694,1.696c2.53,0.576,4.268,1.074,5.211,1.493c1.377,0.629,2.392,1.431,3.043,2.403
				c0.651,0.974,0.977,2.097,0.977,3.369c0,1.243-0.356,2.423-1.067,3.538c-0.711,1.115-1.741,1.98-3.088,2.594
				c-1.348,0.614-2.868,0.921-4.56,0.921c-2.126,0-3.912-0.311-5.357-0.932c-1.445-0.621-2.576-1.558-3.392-2.808
				C1035.158,853.826,1034.728,852.414,1034.683,850.842z"/>
			<path fill="#FFFFFF" d="M1081.781,858.411v-20.799h-7.771v-2.785h18.688v2.785h-7.794v20.799H1081.781z"/>
			<path fill="#FFFFFF" d="M1114.526,858.411v-23.584h3.122v23.584H1114.526z"/>
			<path fill="#FFFFFF" d="M1140.184,858.411v-23.584h3.189l12.398,18.508v-18.508h2.987v23.584h-3.212l-12.376-18.53v18.53
				H1140.184z"/>
			<path fill="#FFFFFF" d="M1193.099,849.157v-2.763l9.995-0.022v8.76c-1.527,1.229-3.107,2.149-4.739,2.763
				c-1.632,0.614-3.31,0.921-5.031,0.921c-2.306,0-4.406-0.497-6.3-1.493c-1.895-0.996-3.324-2.43-4.29-4.302
				c-0.966-1.871-1.449-3.968-1.449-6.289c0-2.291,0.479-4.432,1.438-6.424c0.958-1.991,2.339-3.47,4.144-4.436
				c1.804-0.966,3.882-1.449,6.233-1.449c1.692,0,3.227,0.277,4.604,0.831c1.377,0.555,2.459,1.325,3.246,2.313
				s1.381,2.276,1.786,3.863l-2.808,0.764c-0.359-1.197-0.801-2.141-1.325-2.83c-0.524-0.688-1.273-1.238-2.246-1.65
				c-0.974-0.412-2.059-0.618-3.257-0.618c-1.423,0-2.654,0.218-3.695,0.651c-1.041,0.435-1.879,1.008-2.516,1.719
				c-0.637,0.711-1.134,1.486-1.494,2.324c-0.599,1.468-0.898,3.055-0.898,4.762c0,2.097,0.363,3.853,1.089,5.268
				c0.726,1.415,1.782,2.467,3.167,3.155c1.385,0.689,2.849,1.033,4.391,1.033c1.362,0,2.688-0.262,3.976-0.786
				c1.288-0.523,2.261-1.078,2.92-1.662v-4.402H1193.099z"/>
			<path fill="#FFFFFF" d="M1252.941,850.842l2.942-0.27c0.135,1.184,0.456,2.153,0.966,2.909c0.509,0.756,1.299,1.366,2.369,1.83
				c1.07,0.465,2.28,0.696,3.628,0.696c1.183,0,2.23-0.176,3.145-0.527c0.913-0.352,1.595-0.835,2.044-1.449
				c0.449-0.613,0.674-1.287,0.674-2.021c0-0.733-0.218-1.377-0.651-1.932c-0.435-0.554-1.146-1.018-2.134-1.393
				c-0.629-0.254-2.025-0.64-4.189-1.156s-3.68-1.007-4.548-1.472c-1.123-0.584-1.962-1.313-2.516-2.189
				c-0.555-0.876-0.831-1.854-0.831-2.932c0-1.197,0.337-2.313,1.011-3.347s1.658-1.819,2.953-2.358s2.736-0.809,4.324-0.809
				c1.752,0,3.294,0.285,4.627,0.854c1.332,0.569,2.358,1.4,3.077,2.493c0.719,1.094,1.107,2.329,1.168,3.706l-2.987,0.225
				c-0.165-1.482-0.712-2.605-1.64-3.369c-0.929-0.764-2.299-1.146-4.11-1.146c-1.887,0-3.261,0.345-4.122,1.033
				c-0.861,0.689-1.291,1.521-1.291,2.493c0,0.854,0.307,1.55,0.921,2.089c0.599,0.555,2.163,1.12,4.694,1.696
				c2.53,0.576,4.268,1.074,5.211,1.493c1.377,0.629,2.392,1.431,3.043,2.403c0.651,0.974,0.978,2.097,0.978,3.369
				c0,1.243-0.356,2.423-1.067,3.538s-1.74,1.98-3.088,2.594c-1.348,0.614-2.868,0.921-4.56,0.921c-2.127,0-3.912-0.311-5.357-0.932
				s-2.575-1.558-3.392-2.808S1252.986,852.414,1252.941,850.842z"/>
			<path fill="#FFFFFF" d="M1291.098,846.934c0-3.923,1.052-6.988,3.155-9.197s4.818-3.313,8.143-3.313
				c2.171,0,4.129,0.521,5.873,1.562s3.077,2.489,3.998,4.346c0.921,1.857,1.382,3.969,1.382,6.334c0,2.381-0.483,4.515-1.449,6.401
				s-2.332,3.317-4.099,4.29c-1.768,0.974-3.677,1.46-5.728,1.46c-2.217,0-4.2-0.535-5.952-1.605s-3.077-2.534-3.976-4.392
				C1291.547,850.962,1291.098,849,1291.098,846.934z M1294.31,846.979c0,2.846,0.764,5.084,2.291,6.716
				c1.527,1.633,3.443,2.448,5.75,2.448c2.351,0,4.286-0.823,5.806-2.471c1.52-1.646,2.28-3.99,2.28-7.03
				c0-1.916-0.326-3.59-0.978-5.02s-1.603-2.542-2.853-3.336c-1.25-0.793-2.654-1.19-4.211-1.19c-2.201,0-4.1,0.761-5.694,2.28
				S1294.31,843.43,1294.31,846.979z"/>
			<path fill="#FFFFFF" d="M1334.613,858.411v-23.584h3.122v20.799h11.612v2.785H1334.613z"/>
			<path fill="#FFFFFF" d="M1387.628,834.827h3.122v13.634c0,2.366-0.27,4.245-0.809,5.638s-1.509,2.527-2.908,3.403
				c-1.4,0.876-3.231,1.313-5.492,1.313c-2.216,0-4.028-0.382-5.436-1.146s-2.411-1.864-3.01-3.302s-0.898-3.406-0.898-5.907
				v-13.634h3.122v13.611c0,2.052,0.191,3.561,0.573,4.526s1.036,1.715,1.965,2.246s2.059,0.797,3.392,0.797
				c2.306,0,3.945-0.52,4.919-1.561s1.46-3.044,1.46-6.009V834.827z"/>
			<path fill="#FFFFFF" d="M1420.014,858.411v-20.799h-7.771v-2.785h18.688v2.785h-7.794v20.799H1420.014z"/>
			<path fill="#FFFFFF" d="M1452.759,858.411v-23.584h3.122v23.584H1452.759z"/>
			<path fill="#FFFFFF" d="M1478.497,846.934c0-3.923,1.052-6.988,3.156-9.197c2.104-2.209,4.817-3.313,8.142-3.313
				c2.171,0,4.129,0.521,5.874,1.562c1.744,1.041,3.076,2.489,3.998,4.346c0.92,1.857,1.381,3.969,1.381,6.334
				c0,2.381-0.482,4.515-1.449,6.401c-0.965,1.887-2.332,3.317-4.099,4.29c-1.767,0.974-3.676,1.46-5.728,1.46
				c-2.216,0-4.2-0.535-5.952-1.605s-3.077-2.534-3.976-4.392C1478.946,850.962,1478.497,849,1478.497,846.934z M1481.708,846.979
				c0,2.846,0.764,5.084,2.291,6.716c1.527,1.633,3.444,2.448,5.75,2.448c2.351,0,4.286-0.823,5.806-2.471
				c1.521-1.646,2.28-3.99,2.28-7.03c0-1.916-0.325-3.59-0.978-5.02c-0.65-1.43-1.602-2.542-2.852-3.336
				c-1.251-0.793-2.654-1.19-4.212-1.19c-2.201,0-4.099,0.761-5.694,2.28C1482.506,840.896,1481.708,843.43,1481.708,846.979z"/>
			<path fill="#FFFFFF" d="M1523.124,858.411v-23.584h3.189l12.398,18.508v-18.508h2.987v23.584h-3.212l-12.376-18.53v18.53
				H1523.124z"/>
			<path fill="#FFFFFF" d="M1563.955,850.842l2.942-0.27c0.135,1.184,0.457,2.153,0.966,2.909s1.299,1.366,2.37,1.83
				c1.07,0.465,2.279,0.696,3.627,0.696c1.183,0,2.231-0.176,3.145-0.527s1.595-0.835,2.044-1.449
				c0.449-0.613,0.674-1.287,0.674-2.021c0-0.733-0.217-1.377-0.651-1.932c-0.435-0.554-1.146-1.018-2.134-1.393
				c-0.629-0.254-2.025-0.64-4.188-1.156c-2.164-0.517-3.681-1.007-4.549-1.472c-1.123-0.584-1.962-1.313-2.516-2.189
				s-0.831-1.854-0.831-2.932c0-1.197,0.337-2.313,1.011-3.347s1.658-1.819,2.953-2.358c1.296-0.539,2.737-0.809,4.324-0.809
				c1.752,0,3.294,0.285,4.627,0.854c1.333,0.569,2.358,1.4,3.077,2.493c0.719,1.094,1.108,2.329,1.168,3.706l-2.987,0.225
				c-0.165-1.482-0.711-2.605-1.64-3.369s-2.299-1.146-4.11-1.146c-1.887,0-3.261,0.345-4.121,1.033
				c-0.861,0.689-1.292,1.521-1.292,2.493c0,0.854,0.307,1.55,0.921,2.089c0.599,0.555,2.164,1.12,4.694,1.696
				s4.268,1.074,5.211,1.493c1.378,0.629,2.392,1.431,3.044,2.403c0.65,0.974,0.977,2.097,0.977,3.369
				c0,1.243-0.355,2.423-1.066,3.538c-0.712,1.115-1.741,1.98-3.089,2.594c-1.348,0.614-2.867,0.921-4.56,0.921
				c-2.126,0-3.912-0.311-5.357-0.932c-1.444-0.621-2.575-1.558-3.391-2.808C1564.43,853.826,1564,852.414,1563.955,850.842z"/>
			<rect x="770.297" y="843.883" fill="#FFFFFF" width="159" height="4"/>
			<rect x="1602.14" y="844.619" fill="#FFFFFF" width="159" height="4"/>
		</g>
	</g>
	<g>
		<path fill="#FFFFFF" d="M1157.693,593.673v2.022h13.833v-3.163c18.724-1.713,40.178-4.274,61.659-7.114v10.277h3.924v-10.799
			c29.147-3.898,58.026-8.243,79.885-11.617v21.447h3.199v-21.941c14.711-2.278,25.867-4.052,31.166-4.839
			c4.806-0.714,14.167-2.469,26.105-4.828c3.452,4.236,6.728,9.414,6.728,13.828v17.781l13.167-0.01v-35.595l-0.002,0
			c50.986-10.376,123.002-25.843,123.002-25.843s-44.543,9.437-96.75,18.167c-55.315,9.25-119.175,17.909-145.583,21.167
			c-51.333,6.333-113.417,9.833-154.4,5.09c-40.507-4.688-46.267-21.007-40.934-37.757c4.446-13.964,32.333-38.333,32.333-38.333
			c-15,10-35.446,29.414-45.333,41.083c-35.583,42,9.666,49.917,57.666,51.917C1135.101,594.935,1145.541,594.552,1157.693,593.673z
			"/>
		<path fill="#FFFFFF" d="M1371.694,556.279l25.666-4.667v-85.333h-239.667v110.667h14.834c2.167-11.5,13.416-25.833,32.333-28.776
			c17.296-2.691,28.167,5.61,28.167,5.61l-0.104,20.292l4.344-0.094l0.094-21.365c8-29.167,34.333-30.333,41.833-30
			s17.333,1.833,28.333,12.5s9.167,29.75,9.167,29.75l4.417-0.25l-0.084-11.5C1349.194,538.945,1371.694,556.279,1371.694,556.279z
			 M1211.86,543.945c-11.184,0-20.25-9.066-20.25-20.25s9.066-20.25,20.25-20.25s20.25,9.066,20.25,20.25
			S1223.043,543.945,1211.86,543.945z M1277.844,518.599c-11.184,0-20.25-9.066-20.25-20.25s9.066-20.25,20.25-20.25
			s20.25,9.066,20.25,20.25S1289.028,518.599,1277.844,518.599z M1324.278,523.695c0-11.184,9.066-20.25,20.25-20.25
			s20.25,9.066,20.25,20.25s-9.066,20.25-20.25,20.25S1324.278,534.879,1324.278,523.695z"/>
		<path fill="#FFFFFF" d="M1318.981,642.695h-74.868c-5.456,0-9.878,4.645-9.878,10.375s4.423,10.375,9.878,10.375h74.868
			c5.456,0,9.879-4.645,9.879-10.375S1324.437,642.695,1318.981,642.695z"/>
		<path fill="#FFFFFF" d="M1413.375,609.898l-272.078,0.109v-10.641c0,0-7.297,0.183-9.781,0.172
			c-2.458-0.011-9.989-0.26-9.989-0.26v16c0,0,1.667,14.833,15.5,14.667l280.166,0.167c0,0,16.115-1.954,16.12-14.292v-56.5
			l-19.953,2.75L1413.375,609.898z"/>
		<path fill="#FFFFFF" d="M1142.235,574.07V451.945h271l0.094,94.176l19.984-3.926v-95.188
			c-0.328-16.125-18.953-15.229-18.953-15.229h-277.667c-12.667,0-15.167,16.417-15.167,16.417V571.32c0,0,3.972,1.19,9.396,1.844
			C1136.683,573.858,1142.235,574.07,1142.235,574.07z"/>
	</g>
</g>
</svg>
